<?xml version="1.0" standalone="no"?>
<!DOCTYPE svg PUBLIC "-//W3C//DTD SVG 20010904//EN"
 "http://www.w3.org/TR/2001/REC-SVG-20010904/DTD/svg10.dtd">
<svg version="1.0" xmlns="http://www.w3.org/2000/svg"
 width="1200.000000pt" height="712.000000pt" viewBox="0 0 1200.000000 712.000000"
 preserveAspectRatio="xMidYMid meet">

<g transform="translate(0.000000,712.000000) scale(0.100000,-0.100000)"
fill="#000000" stroke="none">
<path d="M0 7065 l0 -45 6000 0 6000 0 0 45 0 45 -6000 0 -6000 0 0 -45z"/>
<path d="M0 6830 l0 -40 6000 0 6000 0 0 40 0 40 -6000 0 -6000 0 0 -40z"/>
<path d="M0 6600 l0 -40 6000 0 6000 0 0 40 0 40 -6000 0 -6000 0 0 -40z"/>
<path d="M0 6370 l0 -40 6000 0 6000 0 0 40 0 40 -6000 0 -6000 0 0 -40z"/>
<path d="M0 6140 l0 -40 6000 0 6000 0 0 40 0 40 -6000 0 -6000 0 0 -40z"/>
<path d="M0 5910 l0 -40 6000 0 6000 0 0 40 0 40 -6000 0 -6000 0 0 -40z"/>
<path d="M0 5680 l0 -40 6000 0 6000 0 0 40 0 40 -6000 0 -6000 0 0 -40z"/>
<path d="M6575 5559 c-4 -6 -25 -24 -47 -40 l-41 -29 -504 0 c-510 0 -535 2
-556 36 -12 21 -31 17 -57 -11 l-23 -25 -2674 0 -2673 0 0 -40 0 -40 2654 0
2654 0 -41 -75 -42 -75 -384 0 -385 0 -27 26 c-31 29 -58 27 -66 -6 -5 -20
-16 -20 -2184 -20 l-2179 0 0 -40 0 -40 2164 0 2165 0 -26 -75 -25 -75 -2139
0 -2139 0 0 -40 0 -40 1860 0 c1737 0 1860 -1 1860 -17 0 -9 -7 -43 -16 -75
l-17 -58 -1843 0 -1844 0 0 -40 0 -40 1830 0 c1128 0 1830 -4 1830 -9 0 -37
-24 -61 -100 -100 -75 -38 -86 -41 -163 -41 l-83 0 -73 52 c-83 58 -97 57
-116 -8 l-11 -39 -1557 -3 -1557 -2 0 -40 0 -40 1270 0 1270 0 0 -70 0 -70
-1270 0 -1270 0 0 -45 0 -45 1270 0 1270 0 0 -75 0 -75 -1270 0 -1270 0 0 -40
0 -40 1270 0 1270 0 0 -75 0 -75 -1270 0 -1270 0 0 -40 0 -40 1270 0 1270 0 0
-75 0 -75 -1270 0 -1270 0 0 -40 0 -40 1270 0 1270 0 0 -60 0 -60 -1270 0
-1270 0 0 -655 0 -655 6000 0 6000 0 0 655 0 655 -1275 0 -1276 0 3 58 3 57
1273 3 1272 2 0 40 0 40 -1272 2 -1273 3 0 70 0 70 1273 3 1272 2 0 40 0 40
-1270 0 -1270 0 0 75 0 75 1270 0 1270 0 0 40 0 40 -1270 0 -1270 0 0 75 0 75
1270 0 1270 0 0 45 0 45 -1270 0 -1270 0 0 70 0 70 1270 0 1270 0 0 40 0 40
-1557 2 -1557 3 -14 57 c-20 80 -34 82 -125 15 -40 -30 -82 -59 -94 -66 -45
-23 -99 -13 -203 39 -55 28 -100 54 -100 59 0 5 -3 16 -6 25 -6 15 159 16
1825 16 l1831 0 0 40 0 40 -1842 2 -1842 3 -18 55 c-9 30 -17 63 -17 73 -1 16
94 17 1859 17 l1860 0 0 40 0 40 -2137 2 -2138 3 -22 60 c-12 33 -22 66 -22
73 -1 9 437 12 2159 12 l2160 0 0 40 0 40 -2176 0 -2175 0 -15 35 c-22 53 -39
54 -88 6 l-42 -41 -359 0 -360 0 -37 69 c-21 38 -38 72 -38 75 0 3 1190 6
2645 6 l2645 0 0 40 0 40 -2670 0 -2670 0 -25 40 c-25 39 -47 50 -60 29z m-1
-1549 l7 -735 -287 -93 c-158 -50 -289 -90 -292 -88 -2 3 3 391 12 863 9 472
16 914 17 983 l0 125 262 198 262 199 6 -359 c4 -197 9 -689 13 -1093z m-861
1240 l257 -175 0 -115 c0 -128 -31 -1864 -34 -1867 -1 -1 -118 33 -261 76
l-260 78 0 159 c0 87 4 579 9 1092 6 696 11 932 20 930 6 -2 127 -82 269 -178z
m661 152 c-5 -5 -48 -39 -97 -75 l-87 -67 -193 0 -193 0 -109 75 -109 75 399
0 c220 0 395 -4 389 -8z m1175 -1042 c-10 -476 -18 -902 -18 -946 l-1 -82
-252 -101 c-138 -55 -254 -98 -257 -96 -2 3 3 346 13 763 9 416 16 778 16 804
l0 47 256 241 c141 133 257 240 258 238 1 -2 -6 -392 -15 -868z m-2829 570
c96 -90 185 -173 197 -184 l23 -21 19 -810 c11 -446 18 -811 16 -813 -1 -2
-118 43 -259 99 l-256 103 0 150 c0 83 -7 468 -15 856 -8 388 -15 748 -15 800
l0 94 58 -55 c31 -30 136 -129 232 -219z m450 242 c0 -4 -17 -36 -38 -72 l-38
-65 -195 -3 -195 -2 -80 74 -79 75 313 1 c171 0 312 -3 312 -8z m875 -21 l-39
-29 -38 25 c-21 14 -38 27 -38 29 0 2 35 4 77 4 l77 0 -39 -29z m1294 -46
l-77 -75 -173 2 -173 3 -38 65 c-21 36 -38 68 -38 73 0 4 129 7 288 7 l287 0
-76 -75z m-3092 -169 c-3 -8 -11 -32 -18 -55 -15 -52 -22 -57 -89 -69 -41 -8
-61 -7 -80 2 -47 23 -230 128 -230 132 0 2 95 4 211 4 177 0 210 -2 206 -14z
m629 2 c-47 -7 -72 -6 -79 1 -8 8 12 11 69 10 l79 -2 -69 -9z m2277 5 c-13 -2
-35 -2 -50 0 -16 2 -5 4 22 4 28 0 40 -2 28 -4z m857 -58 c-115 -65 -132 -70
-187 -59 -26 5 -32 13 -46 58 -10 29 -17 56 -17 59 0 4 82 7 183 7 l182 0
-115 -65z m-3016 -30 l-37 -67 -59 59 c-45 45 -55 59 -41 61 37 5 168 18 171
16 2 -1 -14 -32 -34 -69z m2116 59 c24 -5 23 -7 -25 -49 l-50 -43 -27 49 c-16
26 -28 50 -28 53 0 5 88 -2 130 -10z m1082 -918 l-7 -680 -183 -98 c-101 -54
-188 -98 -193 -98 -6 0 -7 27 -4 63 2 34 10 391 16 792 8 514 15 733 23 741 6
7 88 55 181 107 l170 96 2 -122 c2 -67 0 -428 -5 -801z m-4215 793 c98 -56
179 -102 180 -103 4 -3 33 -1589 29 -1593 -3 -3 -88 39 -189 93 l-185 99 -6
250 c-6 255 -14 1355 -9 1355 1 0 82 -46 180 -101z m223 3 c0 -5 -6 -16 -13
-26 -12 -17 -16 -17 -43 -3 l-29 15 35 10 c46 13 50 14 50 4z m3640 -1 c0 -5
-7 -11 -15 -15 -9 -3 -15 0 -15 9 0 8 7 15 15 15 8 0 15 -4 15 -9z m592 -192
c34 -17 79 -43 100 -57 l38 -25 -67 -48 c-37 -27 -70 -49 -74 -49 -3 0 -20 47
-36 105 -17 58 -29 105 -26 105 2 0 31 -14 65 -31z m-4802 4 c0 -16 -54 -199
-61 -207 -7 -8 -139 81 -139 94 0 10 60 52 125 87 62 34 75 38 75 26z m5169
-984 l1 -335 -195 -84 c-107 -46 -196 -82 -198 -79 -2 2 5 256 14 564 10 308
18 583 18 611 l1 52 173 125 172 125 6 -322 c3 -176 7 -472 8 -657z m-5417
823 c87 -62 161 -119 165 -125 7 -12 46 -1218 39 -1224 -2 -3 -90 32 -195 77
l-191 82 0 660 c0 525 3 658 13 652 6 -4 83 -59 169 -122z m-292 31 c0 -10 -6
-40 -13 -68 l-13 -50 -116 -3 -116 -3 -109 67 c-59 37 -110 68 -112 70 -2 2
104 4 237 4 224 0 242 -1 242 -17z m6235 8 c-6 -5 -55 -37 -111 -70 l-101 -62
-88 3 -89 3 -12 55 c-7 30 -13 61 -14 68 0 9 49 12 212 12 126 0 208 -4 203
-9z m67 -635 l-7 -579 -209 -89 c-115 -48 -210 -88 -212 -88 -7 0 -4 809 3
958 l6 142 211 130 c125 77 212 125 213 118 2 -7 -1 -274 -5 -592z m-6445 360
l83 -50 2 -548 c3 -483 1 -547 -12 -543 -8 3 -105 43 -215 89 l-200 84 -3 591
-2 591 132 -82 c73 -44 170 -104 215 -132z m93 39 c0 -19 -11 -19 -36 0 -18
14 -18 14 9 15 17 0 27 -5 27 -15z m459 -1186 c17 -6 31 -13 31 -15 0 -9 50
-454 55 -487 l5 -38 -47 3 -48 3 -77 140 c-46 83 -86 145 -100 152 -13 7 -40
13 -61 13 l-37 0 76 -151 c41 -83 73 -153 70 -156 -2 -2 -23 -1 -45 4 l-41 8
-134 230 c-73 127 -132 231 -130 233 1 2 16 -4 32 -12 27 -14 32 -14 46 -1 8
8 20 31 26 50 l12 35 167 0 c96 0 181 -5 200 -11z m641 -19 c45 -23 60 -36 60
-52 0 -22 -67 -421 -76 -450 -4 -15 -17 -18 -65 -18 -32 0 -59 1 -59 3 0 1 -7
65 -15 142 -8 77 -15 146 -15 153 0 14 -115 18 -124 4 -3 -4 4 -71 14 -148 11
-76 20 -142 20 -146 0 -5 -33 -8 -74 -8 l-73 0 -68 238 c-37 130 -70 242 -72
248 -2 7 7 9 24 7 23 -3 31 2 45 26 l17 31 201 0 201 0 59 -30z m727 8 c-4
-12 -34 -136 -67 -275 l-62 -253 -60 0 -61 0 4 153 4 152 -64 3 -63 3 4 -156
4 -156 -60 3 -59 3 -69 243 -70 244 28 29 28 29 284 0 284 0 -5 -22z m700 0
c-4 -12 -34 -136 -67 -275 l-62 -253 -60 0 -60 0 7 155 8 155 -68 0 -68 0 7
-155 6 -155 -59 0 -60 0 -10 38 c-6 20 -39 137 -75 260 -35 122 -61 222 -58
222 3 0 19 -5 36 -11 26 -9 39 -7 86 15 54 25 59 26 279 26 l223 0 -5 -22z
m323 -6 l85 -28 83 28 c61 21 102 28 157 28 41 0 75 -4 75 -9 0 -5 -27 -119
-60 -253 -33 -133 -62 -253 -65 -266 -5 -21 -10 -23 -63 -20 l-57 3 4 153 3
152 -66 0 -66 0 6 -155 7 -155 -59 0 -60 0 -73 258 c-41 141 -76 265 -79 275
-8 29 123 23 228 -11z m1095 19 c11 -1 41 1 66 5 l47 6 -64 -224 c-35 -122
-71 -247 -79 -276 l-16 -53 -55 3 -56 3 1 153 2 152 -64 0 -65 0 6 -155 5
-155 -60 0 -59 0 -64 263 c-34 144 -65 268 -68 275 -3 10 46 12 249 8 140 -2
263 -5 274 -5z m749 -6 c8 -8 23 -19 34 -23 18 -7 15 -20 -52 -257 l-72 -250
-57 -3 -57 -3 0 156 0 156 -61 -3 -61 -3 1 -152 2 -153 -59 0 -58 0 -64 263
c-34 144 -65 268 -67 275 -4 9 55 12 275 12 237 0 283 -2 296 -15z m606 0 c15
-18 40 -19 75 -3 14 6 28 9 31 5 5 -5 -49 -206 -127 -469 l-20 -68 -74 0 -74
0 4 28 c8 45 35 255 35 270 0 10 -15 12 -62 10 l-63 -3 -13 -130 c-19 -190
-12 -175 -81 -175 -57 0 -60 1 -65 28 -3 15 -24 133 -46 262 -39 221 -40 235
-24 247 13 10 78 13 255 13 198 0 239 -2 249 -15z m545 -14 c8 -17 19 -32 24
-35 5 -3 37 7 72 24 35 16 65 28 67 25 4 -3 -283 -503 -296 -516 -4 -4 -26
-10 -49 -14 l-42 -7 73 154 73 153 -31 3 c-63 6 -77 -8 -161 -162 l-80 -146
-42 0 c-38 0 -43 3 -43 23 0 12 12 136 27 275 l27 252 183 0 182 0 16 -29z"/>
<path d="M5866 2079 l-26 -20 0 -290 0 -289 -344 0 -344 0 -74 132 c-40 72
-85 140 -99 151 -60 44 -170 40 -242 -10 -73 -50 -168 -230 -190 -359 -13 -73
2 -125 45 -157 24 -18 43 -20 185 -21 l158 -1 2 -95 c2 -52 5 -105 8 -117 11
-47 101 -67 170 -39 40 17 44 29 47 145 l3 84 654 -2 654 -2 51 -27 c73 -39
171 -38 238 1 44 26 53 27 177 27 195 0 282 25 346 101 l26 32 -3 367 c-2 293
-6 370 -17 383 -18 23 -94 23 -112 0 -11 -12 -15 -79 -17 -310 l-4 -293 -89 0
-88 0 -3 133 -3 132 -65 31 c-49 24 -71 42 -90 73 -51 81 -133 117 -202 88
-19 -8 -66 -45 -104 -82 -71 -69 -114 -95 -158 -95 l-25 0 -3 -137 -3 -138
-156 -3 -156 -2 -6 211 c-4 117 -7 252 -7 300 0 79 -2 89 -22 103 -31 22 -80
20 -112 -5z m841 -320 c42 -15 102 -79 113 -119 14 -51 13 -213 -2 -228 -8 -8
-57 -12 -155 -12 l-142 0 -16 30 c-18 34 -20 146 -4 205 28 102 119 157 206
124z m-1807 -94 c47 -24 73 -86 68 -162 -6 -101 -53 -148 -166 -165 -61 -10
-74 -9 -96 5 -72 48 -20 245 83 314 40 27 71 29 111 8z"/>
<path d="M9860 2093 c-8 -3 -23 -13 -33 -22 -18 -15 -19 -33 -16 -282 4 -251
3 -268 -15 -288 -28 -31 -78 -28 -118 8 l-32 28 0 109 -1 109 -28 13 c-37 18
-111 8 -138 -19 -16 -16 -19 -34 -19 -127 0 -125 -8 -140 -78 -149 -53 -7 -85
24 -107 103 -24 87 -46 133 -73 155 -24 18 -48 19 -659 19 -692 0 -675 1 -725
-58 -41 -49 -53 -96 -53 -217 0 -100 2 -115 28 -167 51 -104 1 -97 715 -104
l620 -7 55 27 c45 22 60 35 77 71 l22 45 161 2 c89 1 174 2 189 1 19 -1 47
-18 83 -52 37 -33 68 -53 93 -57 56 -11 2081 5 2102 16 25 13 37 52 50 164 14
116 8 172 -26 242 l-24 51 -88 6 c-48 4 -359 16 -692 28 -658 22 -654 22 -690
81 -27 44 -25 80 6 117 l26 31 344 0 c368 0 394 3 409 50 7 22 -8 55 -29 63
-7 3 -198 -2 -422 -10 -313 -12 -417 -19 -441 -30 -100 -46 -113 -262 -20
-351 l32 -31 445 -11 c245 -5 522 -11 615 -11 191 -2 243 -10 276 -45 l22 -24
-24 -26 -24 -26 -645 6 c-355 3 -727 9 -827 13 l-183 6 0 238 c0 157 -4 247
-11 263 -19 40 -85 65 -129 49z m-717 -515 c24 -28 21 -81 -5 -128 l-23 -40
-355 0 c-195 0 -461 5 -590 10 -222 9 -236 10 -252 31 -23 27 -24 111 -3 129
24 20 570 36 914 27 281 -8 297 -9 314 -29z"/>
<path d="M7458 2079 c-17 -9 -18 -41 -18 -448 0 -495 -5 -466 80 -466 89 0 84
-29 76 460 -8 483 -5 465 -80 465 -23 0 -49 -5 -58 -11z"/>
<path d="M1380 2037 c-31 -16 -70 -73 -70 -104 0 -57 64 -123 118 -123 64 0
122 57 122 120 0 89 -92 147 -170 107z"/>
<path d="M2304 2036 c-44 -20 -74 -62 -74 -105 0 -106 115 -160 194 -90 43 37
54 81 33 132 -26 61 -95 89 -153 63z"/>
<path d="M2575 2036 c-43 -19 -66 -49 -72 -94 -13 -96 87 -163 176 -117 31 15
61 69 61 107 0 36 -37 88 -75 104 -42 17 -51 17 -90 0z"/>
<path d="M8198 1994 c-87 -46 -69 -179 27 -213 35 -12 45 -11 77 2 42 18 78
68 78 110 0 89 -101 146 -182 101z"/>
<path d="M8469 1995 c-36 -19 -63 -78 -55 -120 26 -134 215 -132 233 2 13 98
-90 166 -178 118z"/>
<path d="M1885 1784 c-53 -19 -131 -79 -171 -131 -92 -121 -110 -329 -35 -397
22 -20 149 -36 289 -36 65 0 94 -4 96 -12 2 -7 10 -67 17 -133 7 -66 16 -130
21 -143 12 -35 73 -57 120 -43 21 7 43 21 49 32 7 14 10 77 7 180 l-3 158 595
3 595 3 58 28 c35 18 63 39 72 56 10 20 16 83 21 208 l7 179 -28 22 c-32 26
-65 28 -104 7 -38 -19 -41 -30 -41 -145 0 -54 -3 -105 -6 -114 -5 -14 -53 -16
-435 -16 l-429 0 0 111 0 110 -35 15 c-44 18 -95 18 -122 -1 -18 -12 -22 -29
-28 -122 -4 -62 -12 -111 -19 -115 -18 -12 -131 -9 -144 4 -7 7 -12 26 -12 43
0 51 -52 146 -107 196 -75 67 -145 83 -228 53z m115 -139 c44 -23 63 -67 58
-137 -7 -102 -69 -153 -201 -164 l-75 -7 -16 31 c-30 58 -16 169 29 228 45 59
141 82 205 49z"/>
<path d="M80 1752 c-21 -17 -22 -23 -27 -358 -3 -187 -3 -352 0 -366 11 -44
109 -64 155 -32 20 14 22 23 22 107 0 51 3 103 7 116 l6 24 581 -5 c637 -7
632 -7 690 51 28 28 31 39 38 114 3 45 7 126 7 179 1 93 0 99 -26 128 -44 49
-153 54 -201 9 -20 -18 -22 -30 -22 -129 l0 -110 -293 0 -294 0 -6 127 c-7
148 -12 157 -86 157 -84 0 -91 -13 -91 -161 l0 -123 -44 0 -43 0 -6 68 c-4 37
-7 92 -7 123 0 66 -18 89 -71 89 -69 0 -74 -12 -71 -154 l4 -126 -51 0 -51 0
0 125 c0 112 -2 127 -20 145 -25 25 -71 26 -100 2z"/>
<path d="M3994 1721 c-71 -12 -148 -38 -178 -62 l-26 -20 0 -338 c0 -327 1
-339 21 -365 17 -21 29 -26 65 -26 25 0 59 7 76 16 28 15 30 19 25 57 -3 23
-9 84 -13 136 l-7 94 34 -7 c19 -4 75 -9 126 -13 110 -7 163 8 217 65 83 84
87 188 15 328 -46 90 -63 108 -120 124 -49 14 -176 20 -235 11z m181 -125 c68
-29 119 -154 90 -223 -21 -51 -58 -68 -145 -68 -121 0 -197 54 -207 148 -12
109 141 193 262 143z"/>
<path d="M9355 1233 c-68 -17 -108 -93 -81 -156 20 -50 60 -77 113 -77 38 0
50 5 79 34 29 29 34 41 34 79 0 53 -27 93 -76 113 -35 15 -37 15 -69 7z"/>
<path d="M9625 1233 c-57 -11 -101 -88 -84 -147 14 -51 61 -86 115 -86 39 0
51 5 80 34 29 29 34 41 34 79 0 53 -27 93 -76 113 -19 8 -37 13 -41 13 -4 -1
-17 -4 -28 -6z"/>
<path d="M3418 1205 c-79 -44 -76 -170 6 -209 45 -21 74 -20 114 4 97 60 64
206 -50 216 -27 3 -53 -1 -70 -11z"/>
<path d="M3605 686 c-5 -2 -22 -7 -37 -10 l-28 -6 0 -260 0 -260 125 0 c106 0
132 3 165 20 63 32 106 76 130 132 72 168 -75 368 -282 383 -34 3 -67 3 -73 1z
m216 -97 c73 -52 97 -190 49 -284 -14 -26 -42 -62 -63 -78 -31 -26 -48 -32
-100 -34 -34 -2 -68 0 -75 5 -17 12 -21 367 -4 399 21 38 135 33 193 -8z"/>
<path d="M4575 673 c-121 -63 -154 -206 -61 -262 17 -10 48 -24 68 -31 44 -14
108 -83 108 -117 0 -30 -22 -38 -125 -48 -91 -8 -115 -18 -115 -45 0 -23 47
-35 126 -34 72 2 118 20 154 60 24 28 30 44 30 82 0 42 -4 50 -28 65 -53 30
-160 154 -173 198 -18 58 -5 74 57 74 27 0 64 -4 82 -9 43 -10 42 6 -2 50 -38
38 -72 43 -121 17z"/>
<path d="M5195 674 c-93 -48 -138 -150 -100 -224 15 -30 79 -70 111 -70 27 0
104 -86 104 -115 0 -32 -21 -40 -128 -50 -56 -5 -89 -13 -105 -25 -29 -24 -16
-37 53 -50 90 -17 174 4 220 56 25 29 30 43 30 84 0 28 -4 50 -10 50 -17 0
-143 124 -172 169 -31 50 -36 92 -13 111 15 13 90 9 142 -6 18 -5 21 -3 16 15
-8 31 -60 71 -91 71 -15 0 -40 -7 -57 -16z"/>
<path d="M8115 674 c-93 -48 -138 -150 -100 -224 15 -30 79 -70 111 -70 27 0
104 -86 104 -115 0 -32 -21 -40 -128 -50 -56 -5 -89 -13 -105 -25 -29 -24 -16
-37 53 -50 90 -17 174 4 220 56 25 29 30 43 30 84 0 28 -4 50 -10 50 -17 0
-143 124 -172 169 -31 50 -36 92 -13 111 15 13 90 9 142 -6 18 -5 21 -3 16 15
-8 31 -60 71 -91 71 -15 0 -40 -7 -57 -16z"/>
<path d="M8673 679 l-33 -10 0 -259 0 -260 123 0 c135 0 168 10 235 74 105 98
96 267 -20 372 -81 73 -218 110 -305 83z m235 -86 c116 -86 106 -282 -20 -376
-28 -21 -111 -34 -152 -23 l-26 6 1 183 c1 220 3 230 49 237 51 8 118 -4 148
-27z"/>
<path d="M11605 676 c-42 -18 -102 -87 -114 -131 -20 -72 31 -146 111 -162 30
-6 118 -93 118 -117 0 -27 -42 -44 -125 -51 -93 -8 -125 -19 -125 -40 0 -23
47 -37 125 -38 117 0 195 57 195 143 0 32 -7 42 -67 91 -112 91 -177 210 -132
240 15 10 111 6 142 -6 28 -12 21 23 -12 56 -33 32 -67 37 -116 15z"/>
<path d="M1195 665 c-49 -19 -90 -57 -118 -110 -33 -61 -31 -190 5 -266 55
-119 137 -176 241 -167 69 6 147 43 147 70 0 15 -4 18 -17 13 -59 -25 -89 -28
-144 -12 -109 32 -189 132 -189 236 0 59 18 101 63 149 30 31 33 32 121 33
148 2 189 20 109 47 -60 21 -171 24 -218 7z"/>
<path d="M2463 672 c-12 -2 -27 -9 -33 -17 -20 -24 26 -45 97 -45 l63 0 2
-232 3 -233 30 0 30 0 8 95 c4 54 3 135 -3 187 -5 50 -8 98 -6 105 2 7 7 25
10 39 7 30 42 49 94 49 45 0 82 9 82 21 0 18 -90 31 -220 33 -74 1 -145 0
-157 -2z"/>
<path d="M5595 657 c-92 -44 -130 -112 -129 -232 2 -173 112 -305 255 -305 68
0 159 39 159 68 0 19 -2 19 -42 5 -133 -46 -308 89 -308 237 0 52 19 97 60
143 l32 37 92 1 c102 2 150 9 149 24 -2 17 -74 37 -148 42 -59 3 -78 0 -120
-20z"/>
<path d="M7245 666 c-54 -20 -119 -93 -134 -150 -39 -158 44 -343 174 -386 79
-26 235 15 235 62 0 15 -4 18 -17 13 -64 -26 -77 -27 -128 -16 -96 22 -177 99
-201 193 -18 69 -4 124 48 183 l40 45 91 1 c149 2 190 20 110 47 -60 21 -171
25 -218 8z"/>
<path d="M9803 672 c-12 -2 -27 -10 -34 -18 -21 -25 6 -38 86 -42 l75 -4 2
-232 3 -231 30 0 30 0 6 85 c3 47 2 132 -4 190 -14 162 5 200 101 200 45 0 82
10 82 21 0 18 -90 31 -220 33 -74 1 -145 0 -157 -2z"/>
<path d="M192 409 l3 -264 30 0 30 0 1 102 c0 90 2 105 20 117 19 15 98 36
134 36 11 0 20 4 20 8 0 12 -78 34 -91 26 -19 -11 -67 17 -79 47 -16 38 -6 90
25 123 22 24 29 26 99 24 77 -3 98 4 77 25 -8 8 -56 13 -142 16 l-129 3 2
-263z"/>
<path d="M628 428 c-54 -133 -100 -251 -104 -260 -5 -15 -1 -18 25 -18 27 0
31 4 40 38 26 94 137 138 242 96 32 -13 45 -26 59 -59 18 -42 44 -75 60 -75
18 0 31 42 25 80 -4 21 -22 65 -41 96 -19 32 -42 81 -50 108 -61 197 -74 221
-129 232 l-31 6 -96 -244z m177 24 c21 -63 14 -99 -22 -113 -32 -12 -113 -1
-113 15 0 6 19 58 42 115 l41 104 18 -34 c9 -19 25 -58 34 -87z"/>
<path d="M1567 479 c-6 -178 -5 -193 13 -230 65 -126 288 -138 351 -19 34 64
21 427 -16 433 -20 4 -32 -63 -22 -115 20 -100 -23 -265 -83 -323 -57 -55
-115 -23 -154 84 -15 44 -17 68 -11 181 7 112 5 133 -9 155 -10 15 -26 25 -40
25 l-23 0 -6 -191z"/>
<path d="M2080 410 l0 -260 149 0 c83 0 152 4 155 8 18 30 -49 52 -133 45 -46
-4 -66 -2 -85 11 -24 15 -25 19 -22 113 2 54 7 141 11 193 7 89 6 97 -15 123
-12 15 -30 27 -41 27 -18 0 -19 -10 -19 -260z"/>
<path d="M2920 410 l0 -260 155 0 c128 0 155 2 155 14 0 34 -40 46 -129 40
-110 -8 -121 1 -113 94 5 76 17 86 118 106 66 12 68 13 41 24 -16 7 -48 12
-73 12 -59 0 -84 25 -84 84 0 34 7 52 27 76 26 32 28 32 92 26 50 -5 71 -3 86
8 18 13 17 14 -20 25 -22 6 -88 11 -147 11 l-108 0 0 -260z"/>
<path d="M4090 411 l0 -261 150 0 c144 0 150 1 150 20 0 30 -37 39 -122 33
-108 -8 -118 0 -114 85 2 37 4 70 5 73 2 12 78 38 131 45 66 9 52 22 -35 33
-53 6 -72 13 -87 31 -23 29 -23 77 2 117 23 38 53 48 115 39 27 -5 53 -3 66 4
42 23 3 34 -131 38 l-130 4 0 -261z"/>
<path d="M5990 411 c0 -172 4 -262 11 -266 5 -4 21 -4 34 -1 29 7 32 23 24
141 -3 50 -1 138 4 196 6 58 7 117 3 132 -8 33 -32 57 -57 57 -18 0 -19 -10
-19 -259z"/>
<path d="M6200 411 l0 -261 150 0 c144 0 150 1 150 20 0 30 -37 39 -122 33
-107 -8 -118 0 -115 84 2 57 5 68 27 85 14 10 57 24 95 31 80 15 74 24 -21 36
-97 11 -125 52 -90 136 19 45 42 55 124 52 73 -2 94 5 73 26 -8 8 -56 13 -141
16 l-130 3 0 -261z"/>
<path d="M6590 410 c0 -277 2 -288 46 -239 17 20 19 36 16 185 -2 90 1 164 6
164 16 0 50 -45 135 -180 96 -152 127 -190 156 -190 31 0 40 50 43 250 2 156
0 191 -14 223 -36 80 -48 42 -48 -155 0 -196 -8 -215 -56 -130 -15 26 -35 56
-44 67 -9 11 -38 58 -63 105 -51 95 -84 135 -122 150 -57 22 -55 32 -55 -250z"/>
<path d="M7630 411 l0 -261 150 0 c144 0 150 1 150 20 0 30 -40 41 -123 34
-103 -9 -118 0 -116 74 1 31 3 64 6 74 5 20 65 45 135 54 l53 7 -30 13 c-16 7
-49 13 -73 14 -81 0 -117 74 -72 147 23 38 53 48 115 39 27 -5 53 -3 66 4 42
23 3 34 -131 38 l-130 4 0 -261z"/>
<path d="M9180 411 l0 -261 156 0 c142 0 155 2 152 17 -6 31 -46 42 -133 36
-104 -7 -115 1 -110 86 1 33 6 65 10 71 11 18 63 37 123 45 68 9 56 24 -24 32
-32 3 -69 11 -81 19 -44 27 -36 112 15 158 18 15 31 17 84 12 69 -7 102 4 80
26 -9 9 -54 14 -142 17 l-130 3 0 -261z"/>
<path d="M10256 543 c-2 -71 -8 -147 -11 -171 -10 -61 2 -107 37 -148 106
-120 310 -96 346 41 13 50 8 295 -7 352 -26 96 -54 44 -45 -85 4 -52 2 -109
-5 -142 -16 -77 -62 -161 -99 -183 -28 -17 -33 -17 -61 -3 -19 10 -39 36 -58
73 -30 62 -32 84 -22 264 3 75 1 90 -15 108 -11 11 -27 21 -37 21 -15 0 -18
-14 -23 -127z"/>
<path d="M10760 411 c0 -265 2 -276 36 -253 31 21 36 54 29 208 -5 104 -4 154
3 154 17 0 55 -51 138 -185 114 -182 158 -220 182 -158 17 42 20 388 4 441
-14 46 -36 55 -46 20 -3 -13 -6 -90 -6 -173 0 -130 -8 -192 -23 -175 -15 18
-122 189 -158 253 -46 83 -77 113 -128 123 l-31 7 0 -262z"/>
<path d="M11300 405 l0 -265 24 0 c13 0 28 6 34 13 7 8 12 80 12 193 1 98 2
203 2 231 1 57 -19 93 -54 93 -17 0 -18 -14 -18 -265z"/>
</g>
</svg>
